<?xml version="1.0" standalone="no"?>
<!DOCTYPE svg PUBLIC "-//W3C//DTD SVG 20010904//EN"
 "http://www.w3.org/TR/2001/REC-SVG-20010904/DTD/svg10.dtd">
<svg version="1.0" xmlns="http://www.w3.org/2000/svg"
 width="500.000000pt" height="500.000000pt" viewBox="0 0 500.000000 500.000000"
 preserveAspectRatio="xMidYMid meet">
<metadata>
Created by potrace 1.16, written by Peter Selinger 2001-2019
</metadata>
<g transform="translate(0.000000,500.000000) scale(0.100000,-0.100000)"
fill="#000000" stroke="none">
<path d="M331 3573 c-27 -101 -251 -1064 -251 -1077 0 -14 22 -16 164 -16
l163 0 14 83 15 82 156 3 156 2 61 -116 c292 -556 803 -970 1394 -1129 192
-52 300 -67 528 -72 357 -9 603 33 902 153 209 84 436 219 595 354 l72 61 0
719 c0 396 -3 720 -6 720 -3 0 -58 -44 -122 -98 -64 -54 -123 -102 -129 -106
-10 -5 -13 17 -13 98 l0 106 110 0 110 0 0 135 0 135 -375 0 -375 0 0 -135 0
-135 105 0 105 0 0 -242 0 -243 -91 -74 c-86 -71 -90 -76 -87 -110 4 -46 32
-61 116 -61 l62 0 0 -65 0 -65 95 0 96 0 -27 -47 c-95 -166 -238 -329 -383
-439 -105 -79 -315 -185 -436 -219 -322 -92 -632 -69 -961 70 -274 117 -507
278 -724 501 -296 304 -493 666 -584 1075 -14 64 -26 124 -26 133 0 9 -9 25
-20 36 -19 19 -33 20 -210 20 l-189 0 -10 -37z m246 -310 c10 -78 48 -260 69
-330 6 -23 5 -23 -85 -23 -90 0 -91 0 -86 23 6 29 65 405 65 418 0 6 6 9 12 7
7 -3 18 -42 25 -95z"/>
<path d="M1700 3390 l0 -220 -46 35 c-170 130 -443 49 -542 -162 -25 -53 -27
-68 -27 -178 0 -115 1 -122 31 -180 38 -72 126 -158 191 -187 57 -26 188 -36
250 -19 22 6 64 27 92 46 l51 35 0 -35 0 -35 75 0 75 0 0 560 0 560 -75 0 -75
0 0 -220z m-165 -291 c54 -15 139 -100 154 -154 35 -127 -23 -254 -139 -303
-22 -9 -57 -13 -102 -10 -55 3 -74 9 -110 35 -87 62 -126 169 -97 270 9 34 28
63 65 100 69 69 137 87 229 62z"/>
<path d="M1890 3475 l0 -135 85 0 85 0 0 -295 0 -295 -85 0 -85 0 0 -135 0
-135 330 0 330 0 0 135 0 135 -85 0 -85 0 0 295 0 295 85 0 85 0 0 135 0 135
-330 0 -330 0 0 -135z"/>
<path d="M2620 3045 l0 -565 160 0 160 0 0 144 c0 119 3 150 18 175 9 17 19
31 22 31 3 0 38 -79 79 -175 l74 -175 179 0 c98 0 178 4 178 8 0 5 -68 147
-151 316 l-150 307 135 244 c75 134 136 246 136 249 0 3 -78 6 -174 6 l-173 0
-86 -202 -86 -203 -1 203 0 202 -160 0 -160 0 0 -565z"/>
</g>
</svg>
